HIERARCHY
ROOT Hips
{
	OFFSET 0.000000 0.000000 0.000000
	CHANNELS 6 Xposition Yposition Zposition Xrotation Yrotation Zrotation
	JOINT LeftUpLeg_virtual
	{
		OFFSET 0.000000 0.000000 0.000000
		CHANNELS 3 Xrotation Yrotation Zrotation
		JOINT LeftUpLeg
		{
			OFFSET 15.427100 -6.655098 0.678600
			CHANNELS 3 Xrotation Yrotation Zrotation
			JOINT LeftLeg
			{
				OFFSET 4.081073 -39.591068 13.024000
				CHANNELS 3 Xrotation Yrotation Zrotation
				JOINT LeftFoot
				{
					OFFSET -4.081074 -37.707932 -15.979700
					CHANNELS 3 Xrotation Yrotation Zrotation
					JOINT LeftToeBase
					{
						OFFSET 5.346399 -15.068900 20.645000
						CHANNELS 3 Xrotation Yrotation Zrotation
						JOINT LeftToe_End
						{
							OFFSET 2.754700 0.931300 11.300900
							CHANNELS 3 Xrotation Yrotation Zrotation
							End Site
							{
								OFFSET 0 0 0
							}
						}
					}
				}
			}
		}
	}
	JOINT RightUpLeg_virtual
	{
		OFFSET 0.000000 0.000000 0.000000
		CHANNELS 3 Xrotation Yrotation Zrotation
		JOINT RightUpLeg
		{
			OFFSET -15.569500 -6.655098 0.678600
			CHANNELS 3 Xrotation Yrotation Zrotation
			JOINT RightLeg
			{
				OFFSET -4.081825 -39.591045 13.023800
				CHANNELS 3 Xrotation Yrotation Zrotation
				JOINT RightFoot
				{
					OFFSET 4.081824 -37.707954 -15.979600
					CHANNELS 3 Xrotation Yrotation Zrotation
					JOINT RightToeBase
					{
						OFFSET -5.346400 -15.068900 20.645000
						CHANNELS 3 Xrotation Yrotation Zrotation
						JOINT RightToe_End
						{
							OFFSET -2.754700 0.931300 11.300900
							CHANNELS 3 Xrotation Yrotation Zrotation
							End Site
							{
								OFFSET 0 0 0
							}
						}
					}
				}
			}
		}
	}
	JOINT Spine_virtual
	{
		OFFSET 0.000000 0.000000 0.000000
		CHANNELS 3 Xrotation Yrotation Zrotation
		JOINT Spine
		{
			OFFSET -0.279200 12.230698 -2.892100
			CHANNELS 3 Xrotation Yrotation Zrotation
			JOINT Spine1
			{
				OFFSET -0.232667 10.192268 -1.242267
				CHANNELS 3 Xrotation Yrotation Zrotation
				JOINT Spine1_split
				{
					OFFSET -0.232667 10.192268 -1.242267
					CHANNELS 3 Xrotation Yrotation Zrotation
					JOINT Spine2
					{
						OFFSET -0.232667 10.192268 -1.242267
						CHANNELS 3 Xrotation Yrotation Zrotation
						JOINT Neck_virtual
						{
							OFFSET 0.000000 0.000000 0.000000
							CHANNELS 3 Xrotation Yrotation Zrotation
							JOINT Neck
							{
								OFFSET -0.418800 17.814194 8.416900
								CHANNELS 3 Xrotation Yrotation Zrotation
								JOINT Head
								{
									OFFSET 0.000000 7.031097 3.806800
									CHANNELS 3 Xrotation Yrotation Zrotation
									JOINT HeadTop_End
									{
										OFFSET 0.000000 24.646606 12.978600
										CHANNELS 3 Xrotation Yrotation Zrotation
										End Site
										{
											OFFSET 0 0 0
										}
									}
								}
							}
						}
						JOINT LeftShoulder_virtual
						{
							OFFSET 0.000000 0.000000 0.000000
							CHANNELS 3 Xrotation Yrotation Zrotation
							JOINT LeftShoulder
							{
								OFFSET 8.476499 7.247704 -3.868750
								CHANNELS 3 Xrotation Yrotation Zrotation
								JOINT LeftShoulder_split
								{
									OFFSET 8.476499 7.247704 -3.868750
									CHANNELS 3 Xrotation Yrotation Zrotation
									JOINT LeftArm
									{
										OFFSET 9.308998 -2.777710 0.208600
										CHANNELS 3 Xrotation Yrotation Zrotation
										JOINT LeftForeArm
										{
											OFFSET 29.972298 0.000000 0.000000
											CHANNELS 3 Xrotation Yrotation Zrotation
											JOINT LeftHand
											{
												OFFSET 26.026505 0.000000 0.000000
												CHANNELS 3 Xrotation Yrotation Zrotation
												End Site
												{
													OFFSET 0 0 0
												}
											}
										}
									}
								}
							}
						}
						JOINT RightShoulder_virtual
						{
							OFFSET 0.000000 0.000000 0.000000
							CHANNELS 3 Xrotation Yrotation Zrotation
							JOINT RightShoulder
							{
								OFFSET -7.570500 7.247704 -3.868750
								CHANNELS 3 Xrotation Yrotation Zrotation
								JOINT RightShoulder_split
								{
									OFFSET -7.570500 7.247704 -3.868750
									CHANNELS 3 Xrotation Yrotation Zrotation
									JOINT RightArm
									{
										OFFSET -9.308998 -2.777710 0.208500
										CHANNELS 3 Xrotation Yrotation Zrotation
										JOINT RightForeArm
										{
											OFFSET -29.972300 0.000000 0.000000
											CHANNELS 3 Xrotation Yrotation Zrotation
											JOINT RightHand
											{
												OFFSET -26.026505 0.000000 0.000000
												CHANNELS 3 Xrotation Yrotation Zrotation
												End Site
												{
													OFFSET 0 0 0
												}
											}
										}
									}
								}
							}
						}
					}
				}
			}
		}
	}
}
MOTION
Frames: 9
Frame Time: 0.03333333
0.185176 95.493729 -4.195477 0.000000 0.000000 0.000000 -86.894275 -6.737866 -1.074506 6.099393 22.974885 14.463692 -2.218352 -0.463654 2.326993 14.440707 29.176208 -23.173322 -2.289676 -0.633372 0.058116 0.000000 0.000000 0.000000 -89.079962 -3.189820 1.084862 5.721786 -25.655937 -20.129093 1.178030 -0.484925 -2.743970 21.161101 -33.315880 27.105889 -8.950323 1.185385 -2.273785 0.000000 0.000000 0.000000 -87.192043 -6.833772 -2.613079 1.204937 -0.202739 -0.121184 -1.377310 0.328879 -0.200326 0.737438 0.891549 -0.320921 0.000000 0.000000 0.000000 -1.392809 0.393726 -0.238287 -6.237226 4.155203 -8.462954 5.742082 8.734410 -13.046641 0.000000 0.000000 0.000000 -0.441700 0.391700 -0.080329 0.412242 -5.794083 -0.723456 -0.492636 1.682432 -2.903886 44.235454 -42.019658 -32.580880 4.948975 -86.275480 4.325043 0.000000 0.000000 0.000000 -0.311558 0.706099 -0.424599 0.393022 0.438051 2.704512 7.263757 7.551490 -0.837274 -4.945580 2.095747 81.057249 -179.266470 54.908003 -179.856271 0.000000 0.000000 0.000000 
0.200740 95.483810 -4.200050 0.000000 0.000000 0.000000 -86.906460 -6.764463 -1.070446 6.125837 22.921876 14.438002 -2.220603 -0.492901 2.324133 14.456090 29.166530 -23.172419 -2.298148 -0.636287 0.038992 0.000000 0.000000 0.000000 -89.075161 -3.197987 1.103675 5.675565 -25.648414 -20.151857 1.212667 -0.497849 -2.772420 21.165433 -33.353419 27.098576 -8.895478 1.185547 -2.277681 0.000000 0.000000 0.000000 -87.205198 -6.847548 -2.611882 1.208275 -0.203652 -0.109642 -1.379886 0.331388 -0.199826 0.744689 0.886529 -0.311813 0.000000 0.000000 0.000000 -1.401332 0.401150 -0.243318 -6.217708 4.206264 -8.463648 6.312542 8.892686 -13.419519 0.000000 0.000000 0.000000 -0.430399 0.387813 -0.078337 0.402272 -5.816122 -0.773379 -0.495453 1.692831 -2.804753 44.195685 -42.026137 -32.660605 4.867332 -86.243542 4.250196 0.000000 0.000000 0.000000 -0.303796 0.709949 -0.425396 0.399430 0.448237 2.727620 7.259886 7.566305 -0.844383 -4.904623 2.074603 80.961565 -179.263601 54.846091 -179.847173 0.000000 0.000000 0.000000 
0.217278 95.469337 -4.211071 0.000000 0.000000 0.000000 -86.915230 -6.796725 -1.071817 6.140370 22.862921 14.412959 -2.215258 -0.523997 2.322478 14.464736 29.157217 -23.171811 -2.305713 -0.639935 0.020363 0.000000 0.000000 0.000000 -89.068269 -3.217267 1.113727 5.624453 -25.645084 -20.168748 1.235796 -0.511576 -2.799864 21.162194 -33.392166 27.084376 -8.841361 1.184930 -2.279460 0.000000 0.000000 0.000000 -87.212971 -6.866780 -2.610166 1.203969 -0.201818 -0.093775 -1.385481 0.337589 -0.199820 0.751234 0.899292 -0.291371 0.000000 0.000000 0.000000 -1.417389 0.409880 -0.246663 -6.192832 4.279750 -8.476217 7.068430 9.079668 -13.924165 0.000000 0.000000 0.000000 -0.421955 0.386866 -0.073015 0.388214 -5.822365 -0.832977 -0.493037 1.692996 -2.712903 44.177363 -42.040743 -32.687564 4.693089 -86.217888 4.081724 0.000000 0.000000 0.000000 -0.298332 0.714118 -0.429431 0.401715 0.415187 2.739825 7.279135 7.600628 -0.845476 -4.861168 2.054583 80.873531 -179.251553 54.770457 -179.853798 0.000000 0.000000 0.000000 
0.233125 95.452911 -4.229092 0.000000 0.000000 0.000000 -86.919164 -6.830614 -1.078893 6.141257 22.802583 14.391055 -2.204895 -0.556447 2.322236 14.466890 29.148201 -23.174205 -2.314081 -0.644115 0.003741 0.000000 0.000000 0.000000 -89.058010 -3.243601 1.114960 5.573091 -25.647842 -20.178419 1.240936 -0.525325 -2.823328 21.155080 -33.425634 27.067343 -8.792100 1.183860 -2.280293 0.000000 0.000000 0.000000 -87.213606 -6.890778 -2.610836 1.191861 -0.199002 -0.074280 -1.392761 0.344443 -0.199725 0.750365 0.921415 -0.271032 0.000000 0.000000 0.000000 -1.438499 0.418268 -0.247415 -6.180582 4.366296 -8.490556 7.901742 9.257208 -14.493361 0.000000 0.000000 0.000000 -0.417942 0.387778 -0.065043 0.373050 -5.811628 -0.896049 -0.485941 1.684044 -2.640774 44.187117 -42.063812 -32.669785 4.432568 -86.195328 3.825247 0.000000 0.000000 0.000000 -0.296011 0.716966 -0.435586 0.400405 0.343254 2.738037 7.315205 7.638246 -0.840312 -4.824711 2.038824 80.814108 -179.231841 54.703661 -179.874931 0.000000 0.000000 0.000000 
0.246359 95.438782 -4.249031 0.000000 0.000000 0.000000 -86.917231 -6.864226 -1.092833 6.128528 22.746586 14.375858 -2.191156 -0.587308 2.323232 14.467410 29.139093 -23.182576 -2.325679 -0.648568 -0.009710 0.000000 0.000000 0.000000 -89.044302 -3.272374 1.107061 5.528976 -25.657688 -20.178085 1.223142 -0.539655 -2.840527 21.147186 -33.449854 27.050474 -8.751223 1.182775 -2.281543 0.000000 0.000000 0.000000 -87.205526 -6.917561 -2.616785 1.173583 -0.195134 -0.052686 -1.399746 0.349642 -0.198756 0.749807 0.956859 -0.251189 0.000000 0.000000 0.000000 -1.463876 0.424354 -0.244318 -6.198857 4.449912 -8.500096 8.705694 9.391052 -15.043693 0.000000 0.000000 0.000000 -0.419433 0.389541 -0.055362 0.360039 -5.786705 -0.954027 -0.476625 1.663937 -2.592873 44.225191 -42.096273 -32.621643 4.106862 -86.166101 3.502722 0.000000 0.000000 0.000000 -0.297083 0.717896 -0.442270 0.395602 0.241533 2.724290 7.357372 7.670807 -0.823769 -4.801243 2.038229 80.789349 -179.206050 54.663472 -179.907497 0.000000 0.000000 0.000000 
0.256582 95.428696 -4.268082 0.000000 0.000000 0.000000 -86.910032 -6.892498 -1.110865 6.104216 22.702236 14.369243 -2.176891 -0.612624 2.324199 14.470818 29.131177 -23.196347 -2.341483 -0.653098 -0.019428 0.000000 0.000000 0.000000 -89.027267 -3.298955 1.091835 5.497356 -25.673488 -20.167066 1.186067 -0.554942 -2.849937 21.138568 -33.464689 27.033858 -8.719397 1.182144 -2.284387 0.000000 0.000000 0.000000 -87.189202 -6.944565 -2.628159 1.155419 -0.190850 -0.030697 -1.404626 0.352417 -0.196526 0.749349 1.003657 -0.237896 0.000000 0.000000 0.000000 -1.490341 0.428271 -0.238094 -6.250415 4.519171 -8.498772 9.374282 9.457866 -15.503382 0.000000 0.000000 0.000000 -0.426977 0.391813 -0.044869 0.351658 -5.749897 -1.003497 -0.459135 1.629470 -2.572640 44.286933 -42.135123 -32.558112 3.766070 -86.120762 3.163371 0.000000 0.000000 0.000000 -0.300748 0.717896 -0.448028 0.389483 0.125615 2.701711 7.395984 7.690569 -0.793410 -4.794014 2.057404 80.796166 -179.176708 54.644642 -179.946210 0.000000 0.000000 0.000000 
0.261775 95.423622 -4.281521 0.000000 0.000000 0.000000 -86.897369 -6.915614 -1.132878 6.069937 22.677193 14.372598 -2.161977 -0.626673 2.324487 14.476980 29.127325 -23.209452 -2.359730 -0.657503 -0.025484 0.000000 0.000000 0.000000 -89.007562 -3.321282 1.070670 5.481138 -25.691270 -20.145385 1.137024 -0.572642 -2.851690 21.127908 -33.473138 27.015560 -8.694044 1.182257 -2.288998 0.000000 0.000000 0.000000 -87.167557 -6.970025 -2.642927 1.141397 -0.185672 -0.010672 -1.407247 0.352855 -0.192527 0.752672 1.050613 -0.232328 0.000000 0.000000 0.000000 -1.516293 0.431033 -0.229765 -6.328202 4.565623 -8.488673 9.838784 9.447407 -15.816464 0.000000 0.000000 0.000000 -0.439857 0.395610 -0.034600 0.348278 -5.705581 -1.040434 -0.431377 1.594937 -2.577055 44.363469 -42.172928 -32.487330 3.471598 -86.058512 2.868783 0.000000 0.000000 0.000000 -0.305878 0.718187 -0.452556 0.382714 0.009796 2.676662 7.430594 7.695809 -0.756951 -4.803003 2.097472 80.827981 -179.146846 54.641360 -179.985211 0.000000 0.000000 0.000000 
0.261547 95.422256 -4.291550 0.000000 0.000000 0.000000 -86.877643 -6.932315 -1.156370 6.030785 22.675024 14.383796 -2.148594 -0.626332 2.323576 14.484333 29.129439 -23.217859 -2.377976 -0.661361 -0.028023 0.000000 0.000000 0.000000 -88.986457 -3.340801 1.043385 5.480352 -25.704560 -20.114547 1.085835 -0.592927 -2.846672 21.113527 -33.478712 26.994052 -8.673404 1.183087 -2.294901 0.000000 0.000000 0.000000 -87.142832 -6.992778 -2.659678 1.134523 -0.178041 0.005427 -1.406612 0.353437 -0.187661 0.749763 1.095140 -0.233671 0.000000 0.000000 0.000000 -1.537960 0.434807 -0.221557 -6.411444 4.587104 -8.476500 10.057843 9.368160 -15.955554 0.000000 0.000000 0.000000 -0.457721 0.402662 -0.025320 0.349283 -5.656991 -1.062700 -0.407649 1.560659 -2.590956 44.442047 -42.202045 -32.411334 3.275247 -85.993468 2.670778 0.000000 0.000000 0.000000 -0.311512 0.720752 -0.456365 0.376481 -0.089709 2.653752 7.459139 7.699500 -0.718493 -4.823615 2.154998 80.873572 -179.119020 54.644095 179.981181 0.000000 0.000000 0.000000 
0.255071 95.422882 -4.298336 0.000000 0.000000 0.000000 -86.851640 -6.941143 -1.177039 5.989835 22.694251 14.402069 -2.136962 -0.611556 2.321201 14.489140 29.137119 -23.219915 -2.395509 -0.664284 -0.026869 0.000000 0.000000 0.000000 -88.963105 -3.356413 1.015047 5.491876 -25.706185 -20.078726 1.040526 -0.614889 -2.836955 21.096349 -33.482919 26.971995 -8.659351 1.184527 -2.301156 0.000000 0.000000 0.000000 -87.118202 -7.011298 -2.673698 1.134247 -0.168062 0.016147 -1.403075 0.356177 -0.182850 0.740604 1.128220 -0.243706 0.000000 0.000000 0.000000 -1.553467 0.441040 -0.215179 -6.477336 4.588778 -8.471302 10.029273 9.236808 -15.923580 0.000000 0.000000 0.000000 -0.479076 0.414045 -0.018562 0.352734 -5.608127 -1.073763 -0.384797 1.536394 -2.618209 44.516994 -42.215121 -32.331131 3.206934 -85.943676 2.598563 0.000000 0.000000 0.000000 -0.316400 0.726624 -0.460530 0.372368 -0.160496 2.637986 7.480633 7.701397 -0.683772 -4.855137 2.218870 80.926643 -179.094363 54.647561 179.955322 0.000000 0.000000 0.000000 
